<mxfile host="app.diagrams.net" modified="2022-12-05T04:53:44.015Z" agent="5.0 (Windows NT 10.0; Win64; x64) AppleWebKit/537.36 (KHTML, like Gecko) Chrome/108.0.0.0 Safari/537.36" etag="lqih9BSPM26Pyx6Dd-Xx" version="20.6.0" type="github">
  <diagram id="R2lEEEUBdFMjLlhIrx00" name="Page-1">
    <mxGraphModel dx="2512" dy="697" grid="1" gridSize="10" guides="1" tooltips="1" connect="1" arrows="1" fold="1" page="1" pageScale="1" pageWidth="850" pageHeight="1100" math="0" shadow="0" extFonts="Permanent Marker^https://fonts.googleapis.com/css?family=Permanent+Marker">
      <root>
        <mxCell id="0" />
        <mxCell id="1" parent="0" />
        <mxCell id="KYqQ4QEwSn9y70eBzoIo-3" value="user_id" style="ellipse;whiteSpace=wrap;html=1;align=center;fontStyle=4;" parent="1" vertex="1">
          <mxGeometry x="70" y="70" width="100" height="40" as="geometry" />
        </mxCell>
        <mxCell id="KYqQ4QEwSn9y70eBzoIo-5" value="User" style="whiteSpace=wrap;html=1;align=center;" parent="1" vertex="1">
          <mxGeometry x="70" y="160" width="100" height="40" as="geometry" />
        </mxCell>
        <mxCell id="KYqQ4QEwSn9y70eBzoIo-6" value="password" style="ellipse;whiteSpace=wrap;html=1;align=center;" parent="1" vertex="1">
          <mxGeometry x="-100" y="150" width="100" height="40" as="geometry" />
        </mxCell>
        <mxCell id="KYqQ4QEwSn9y70eBzoIo-7" value="nickname" style="ellipse;whiteSpace=wrap;html=1;align=center;" parent="1" vertex="1">
          <mxGeometry x="-35" y="90" width="100" height="40" as="geometry" />
        </mxCell>
        <mxCell id="KYqQ4QEwSn9y70eBzoIo-8" value="Coupon" style="whiteSpace=wrap;html=1;align=center;" parent="1" vertex="1">
          <mxGeometry x="160" y="430" width="100" height="40" as="geometry" />
        </mxCell>
        <mxCell id="KYqQ4QEwSn9y70eBzoIo-12" value="" style="endArrow=none;html=1;rounded=0;entryX=0.25;entryY=0;entryDx=0;entryDy=0;exitX=0.58;exitY=1.05;exitDx=0;exitDy=0;exitPerimeter=0;" parent="1" source="KYqQ4QEwSn9y70eBzoIo-7" target="KYqQ4QEwSn9y70eBzoIo-5" edge="1">
          <mxGeometry relative="1" as="geometry">
            <mxPoint x="250" y="370" as="sourcePoint" />
            <mxPoint x="410" y="370" as="targetPoint" />
          </mxGeometry>
        </mxCell>
        <mxCell id="KYqQ4QEwSn9y70eBzoIo-13" value="" style="endArrow=none;html=1;rounded=0;exitX=0.5;exitY=0;exitDx=0;exitDy=0;" parent="1" source="KYqQ4QEwSn9y70eBzoIo-5" target="KYqQ4QEwSn9y70eBzoIo-3" edge="1">
          <mxGeometry relative="1" as="geometry">
            <mxPoint x="380" y="300" as="sourcePoint" />
            <mxPoint x="550" y="300" as="targetPoint" />
          </mxGeometry>
        </mxCell>
        <mxCell id="KYqQ4QEwSn9y70eBzoIo-14" value="" style="endArrow=none;html=1;rounded=0;exitX=0;exitY=0.25;exitDx=0;exitDy=0;" parent="1" source="KYqQ4QEwSn9y70eBzoIo-5" target="KYqQ4QEwSn9y70eBzoIo-6" edge="1">
          <mxGeometry relative="1" as="geometry">
            <mxPoint x="240" y="320" as="sourcePoint" />
            <mxPoint x="400" y="320" as="targetPoint" />
          </mxGeometry>
        </mxCell>
        <mxCell id="KYqQ4QEwSn9y70eBzoIo-19" value="" style="shape=link;html=1;rounded=0;exitX=0.6;exitY=0.05;exitDx=0;exitDy=0;exitPerimeter=0;entryX=0;entryY=1;entryDx=0;entryDy=0;" parent="1" source="KYqQ4QEwSn9y70eBzoIo-129" target="KYqQ4QEwSn9y70eBzoIo-47" edge="1">
          <mxGeometry relative="1" as="geometry">
            <mxPoint x="850" y="630" as="sourcePoint" />
            <mxPoint x="1010" y="360" as="targetPoint" />
          </mxGeometry>
        </mxCell>
        <mxCell id="KYqQ4QEwSn9y70eBzoIo-20" value="1" style="resizable=0;html=1;align=right;verticalAlign=bottom;" parent="KYqQ4QEwSn9y70eBzoIo-19" connectable="0" vertex="1">
          <mxGeometry x="1" relative="1" as="geometry">
            <mxPoint x="-10" y="10" as="offset" />
          </mxGeometry>
        </mxCell>
        <mxCell id="KYqQ4QEwSn9y70eBzoIo-21" value="Has" style="shape=rhombus;perimeter=rhombusPerimeter;whiteSpace=wrap;html=1;align=center;" parent="1" vertex="1">
          <mxGeometry x="150" y="270" width="120" height="60" as="geometry" />
        </mxCell>
        <mxCell id="KYqQ4QEwSn9y70eBzoIo-26" value="" style="endArrow=none;html=1;rounded=0;exitX=0.75;exitY=1;exitDx=0;exitDy=0;" parent="1" source="KYqQ4QEwSn9y70eBzoIo-5" target="KYqQ4QEwSn9y70eBzoIo-21" edge="1">
          <mxGeometry relative="1" as="geometry">
            <mxPoint x="290" y="240" as="sourcePoint" />
            <mxPoint x="450" y="240" as="targetPoint" />
          </mxGeometry>
        </mxCell>
        <mxCell id="KYqQ4QEwSn9y70eBzoIo-27" value="N" style="resizable=0;html=1;align=right;verticalAlign=bottom;" parent="KYqQ4QEwSn9y70eBzoIo-26" connectable="0" vertex="1">
          <mxGeometry x="1" relative="1" as="geometry">
            <mxPoint x="15" y="-7" as="offset" />
          </mxGeometry>
        </mxCell>
        <mxCell id="KYqQ4QEwSn9y70eBzoIo-31" value="" style="endArrow=none;html=1;rounded=0;entryX=0.5;entryY=0;entryDx=0;entryDy=0;exitX=0.5;exitY=1;exitDx=0;exitDy=0;" parent="1" source="KYqQ4QEwSn9y70eBzoIo-21" target="KYqQ4QEwSn9y70eBzoIo-8" edge="1">
          <mxGeometry relative="1" as="geometry">
            <mxPoint x="246.66666666666652" y="323.33333333333326" as="sourcePoint" />
            <mxPoint x="770" y="280" as="targetPoint" />
          </mxGeometry>
        </mxCell>
        <mxCell id="KYqQ4QEwSn9y70eBzoIo-32" value="M" style="resizable=0;html=1;align=right;verticalAlign=bottom;" parent="KYqQ4QEwSn9y70eBzoIo-31" connectable="0" vertex="1">
          <mxGeometry x="1" relative="1" as="geometry">
            <mxPoint x="20" y="-80" as="offset" />
          </mxGeometry>
        </mxCell>
        <mxCell id="KYqQ4QEwSn9y70eBzoIo-33" value="Takes" style="shape=rhombus;perimeter=rhombusPerimeter;whiteSpace=wrap;html=1;align=center;" parent="1" vertex="1">
          <mxGeometry x="840" y="170" width="120" height="60" as="geometry" />
        </mxCell>
        <mxCell id="KYqQ4QEwSn9y70eBzoIo-36" value="" style="endArrow=none;html=1;rounded=0;entryX=0.333;entryY=0.2;entryDx=0;entryDy=0;entryPerimeter=0;exitX=1;exitY=0.5;exitDx=0;exitDy=0;" parent="1" source="KYqQ4QEwSn9y70eBzoIo-5" target="KYqQ4QEwSn9y70eBzoIo-33" edge="1">
          <mxGeometry relative="1" as="geometry">
            <mxPoint x="260" y="230" as="sourcePoint" />
            <mxPoint x="420" y="230" as="targetPoint" />
          </mxGeometry>
        </mxCell>
        <mxCell id="KYqQ4QEwSn9y70eBzoIo-37" value="M" style="resizable=0;html=1;align=right;verticalAlign=bottom;" parent="KYqQ4QEwSn9y70eBzoIo-36" connectable="0" vertex="1">
          <mxGeometry x="1" relative="1" as="geometry">
            <mxPoint x="-10" y="-2" as="offset" />
          </mxGeometry>
        </mxCell>
        <mxCell id="KYqQ4QEwSn9y70eBzoIo-44" value="Lecture" style="shape=ext;margin=3;double=1;whiteSpace=wrap;html=1;align=center;" parent="1" vertex="1">
          <mxGeometry x="1240" y="297" width="100" height="40" as="geometry" />
        </mxCell>
        <mxCell id="KYqQ4QEwSn9y70eBzoIo-45" value="" style="shape=link;html=1;rounded=0;exitX=0;exitY=0.5;exitDx=0;exitDy=0;" parent="1" source="KYqQ4QEwSn9y70eBzoIo-44" target="KYqQ4QEwSn9y70eBzoIo-47" edge="1">
          <mxGeometry relative="1" as="geometry">
            <mxPoint x="1010" y="304.5" as="sourcePoint" />
            <mxPoint x="1060" y="207" as="targetPoint" />
          </mxGeometry>
        </mxCell>
        <mxCell id="KYqQ4QEwSn9y70eBzoIo-46" value="N" style="resizable=0;html=1;align=right;verticalAlign=bottom;" parent="KYqQ4QEwSn9y70eBzoIo-45" connectable="0" vertex="1">
          <mxGeometry x="1" relative="1" as="geometry">
            <mxPoint x="-10" y="10" as="offset" />
          </mxGeometry>
        </mxCell>
        <mxCell id="KYqQ4QEwSn9y70eBzoIo-47" value="Includes" style="shape=rhombus;double=1;perimeter=rhombusPerimeter;whiteSpace=wrap;html=1;align=center;" parent="1" vertex="1">
          <mxGeometry x="970" y="287" width="120" height="60" as="geometry" />
        </mxCell>
        <mxCell id="KYqQ4QEwSn9y70eBzoIo-48" value="coupon_id" style="ellipse;whiteSpace=wrap;html=1;align=center;fontStyle=4;" parent="1" vertex="1">
          <mxGeometry x="330" y="370" width="100" height="40" as="geometry" />
        </mxCell>
        <mxCell id="KYqQ4QEwSn9y70eBzoIo-49" value="expiration_date" style="ellipse;whiteSpace=wrap;html=1;align=center;" parent="1" vertex="1">
          <mxGeometry x="330" y="430" width="100" height="40" as="geometry" />
        </mxCell>
        <mxCell id="KYqQ4QEwSn9y70eBzoIo-50" value="discount" style="ellipse;whiteSpace=wrap;html=1;align=center;" parent="1" vertex="1">
          <mxGeometry x="330" y="490" width="100" height="40" as="geometry" />
        </mxCell>
        <mxCell id="KYqQ4QEwSn9y70eBzoIo-51" value="" style="endArrow=none;html=1;rounded=0;entryX=0.246;entryY=0.907;entryDx=0;entryDy=0;entryPerimeter=0;" parent="1" source="KYqQ4QEwSn9y70eBzoIo-8" target="KYqQ4QEwSn9y70eBzoIo-48" edge="1">
          <mxGeometry relative="1" as="geometry">
            <mxPoint x="840" y="150" as="sourcePoint" />
            <mxPoint x="1000" y="150" as="targetPoint" />
          </mxGeometry>
        </mxCell>
        <mxCell id="KYqQ4QEwSn9y70eBzoIo-52" value="" style="endArrow=none;html=1;rounded=0;exitX=1;exitY=0.5;exitDx=0;exitDy=0;entryX=0;entryY=0.5;entryDx=0;entryDy=0;" parent="1" source="KYqQ4QEwSn9y70eBzoIo-8" target="KYqQ4QEwSn9y70eBzoIo-49" edge="1">
          <mxGeometry relative="1" as="geometry">
            <mxPoint x="860" y="270" as="sourcePoint" />
            <mxPoint x="1020" y="270" as="targetPoint" />
          </mxGeometry>
        </mxCell>
        <mxCell id="KYqQ4QEwSn9y70eBzoIo-53" value="" style="endArrow=none;html=1;rounded=0;exitX=1;exitY=0.75;exitDx=0;exitDy=0;entryX=0.09;entryY=0.275;entryDx=0;entryDy=0;entryPerimeter=0;" parent="1" source="KYqQ4QEwSn9y70eBzoIo-8" target="KYqQ4QEwSn9y70eBzoIo-50" edge="1">
          <mxGeometry relative="1" as="geometry">
            <mxPoint x="830" y="290" as="sourcePoint" />
            <mxPoint x="990" y="290" as="targetPoint" />
          </mxGeometry>
        </mxCell>
        <mxCell id="KYqQ4QEwSn9y70eBzoIo-63" value="Order" style="shape=ext;margin=3;double=1;whiteSpace=wrap;html=1;align=center;" parent="1" vertex="1">
          <mxGeometry x="-20" y="430" width="100" height="40" as="geometry" />
        </mxCell>
        <mxCell id="KYqQ4QEwSn9y70eBzoIo-70" value="Places" style="shape=rhombus;double=1;perimeter=rhombusPerimeter;whiteSpace=wrap;html=1;align=center;" parent="1" vertex="1">
          <mxGeometry x="-30" y="270" width="120" height="60" as="geometry" />
        </mxCell>
        <mxCell id="KYqQ4QEwSn9y70eBzoIo-75" value="" style="shape=link;html=1;rounded=0;" parent="1" source="KYqQ4QEwSn9y70eBzoIo-63" target="KYqQ4QEwSn9y70eBzoIo-70" edge="1">
          <mxGeometry relative="1" as="geometry">
            <mxPoint x="240" y="340" as="sourcePoint" />
            <mxPoint x="400" y="340" as="targetPoint" />
          </mxGeometry>
        </mxCell>
        <mxCell id="KYqQ4QEwSn9y70eBzoIo-76" value="1" style="resizable=0;html=1;align=right;verticalAlign=bottom;" parent="KYqQ4QEwSn9y70eBzoIo-75" connectable="0" vertex="1">
          <mxGeometry x="1" relative="1" as="geometry">
            <mxPoint x="-10" y="10" as="offset" />
          </mxGeometry>
        </mxCell>
        <mxCell id="KYqQ4QEwSn9y70eBzoIo-82" value="" style="shape=link;html=1;rounded=0;entryX=0.565;entryY=0.083;entryDx=0;entryDy=0;entryPerimeter=0;" parent="1" source="KYqQ4QEwSn9y70eBzoIo-5" target="KYqQ4QEwSn9y70eBzoIo-70" edge="1">
          <mxGeometry relative="1" as="geometry">
            <mxPoint x="152.5" y="420" as="sourcePoint" />
            <mxPoint x="170" y="330" as="targetPoint" />
          </mxGeometry>
        </mxCell>
        <mxCell id="KYqQ4QEwSn9y70eBzoIo-83" value="1" style="resizable=0;html=1;align=right;verticalAlign=bottom;" parent="KYqQ4QEwSn9y70eBzoIo-82" connectable="0" vertex="1">
          <mxGeometry x="1" relative="1" as="geometry">
            <mxPoint x="-8" y="-5" as="offset" />
          </mxGeometry>
        </mxCell>
        <mxCell id="KYqQ4QEwSn9y70eBzoIo-88" value="" style="shape=link;html=1;rounded=0;exitX=0.5;exitY=1;exitDx=0;exitDy=0;entryX=0.5;entryY=0;entryDx=0;entryDy=0;" parent="1" source="KYqQ4QEwSn9y70eBzoIo-63" target="KYqQ4QEwSn9y70eBzoIo-177" edge="1">
          <mxGeometry relative="1" as="geometry">
            <mxPoint x="130" y="572.5" as="sourcePoint" />
            <mxPoint x="192.22222222222217" y="521.3888888888891" as="targetPoint" />
          </mxGeometry>
        </mxCell>
        <mxCell id="KYqQ4QEwSn9y70eBzoIo-89" value="1" style="resizable=0;html=1;align=right;verticalAlign=bottom;" parent="KYqQ4QEwSn9y70eBzoIo-88" connectable="0" vertex="1">
          <mxGeometry x="1" relative="1" as="geometry">
            <mxPoint x="-10" as="offset" />
          </mxGeometry>
        </mxCell>
        <mxCell id="KYqQ4QEwSn9y70eBzoIo-90" value="Comment" style="shape=ext;margin=3;double=1;whiteSpace=wrap;html=1;align=center;" parent="1" vertex="1">
          <mxGeometry x="740" y="360" width="100" height="40" as="geometry" />
        </mxCell>
        <mxCell id="KYqQ4QEwSn9y70eBzoIo-97" value="discounted_total_cost" style="ellipse;whiteSpace=wrap;html=1;align=center;dashed=1;" parent="1" vertex="1">
          <mxGeometry x="-220" y="552" width="130" height="40" as="geometry" />
        </mxCell>
        <mxCell id="KYqQ4QEwSn9y70eBzoIo-98" value="" style="endArrow=none;html=1;rounded=0;entryX=0.4;entryY=1;entryDx=0;entryDy=0;entryPerimeter=0;exitX=1;exitY=0;exitDx=0;exitDy=0;" parent="1" source="KYqQ4QEwSn9y70eBzoIo-97" target="KYqQ4QEwSn9y70eBzoIo-63" edge="1">
          <mxGeometry relative="1" as="geometry">
            <mxPoint x="170" y="582.5" as="sourcePoint" />
            <mxPoint x="330" y="582.5" as="targetPoint" />
          </mxGeometry>
        </mxCell>
        <mxCell id="KYqQ4QEwSn9y70eBzoIo-102" value="" style="endArrow=none;html=1;rounded=0;exitX=1;exitY=0.5;exitDx=0;exitDy=0;entryX=0;entryY=0.75;entryDx=0;entryDy=0;" parent="1" source="Y8peJH4hKLtHoO32dnuL-4" target="KYqQ4QEwSn9y70eBzoIo-63" edge="1">
          <mxGeometry relative="1" as="geometry">
            <mxPoint x="-105" y="492" as="sourcePoint" />
            <mxPoint x="330" y="582.5" as="targetPoint" />
          </mxGeometry>
        </mxCell>
        <mxCell id="KYqQ4QEwSn9y70eBzoIo-110" value="Category" style="whiteSpace=wrap;html=1;align=center;" parent="1" vertex="1">
          <mxGeometry x="1040" y="420" width="100" height="40" as="geometry" />
        </mxCell>
        <mxCell id="KYqQ4QEwSn9y70eBzoIo-116" value="name" style="ellipse;whiteSpace=wrap;html=1;align=center;fontStyle=4;" parent="1" vertex="1">
          <mxGeometry x="1220" y="420" width="100" height="40" as="geometry" />
        </mxCell>
        <mxCell id="KYqQ4QEwSn9y70eBzoIo-117" value="" style="endArrow=none;html=1;rounded=0;exitX=1;exitY=0.5;exitDx=0;exitDy=0;entryX=0;entryY=0.5;entryDx=0;entryDy=0;" parent="1" source="KYqQ4QEwSn9y70eBzoIo-110" target="KYqQ4QEwSn9y70eBzoIo-116" edge="1">
          <mxGeometry relative="1" as="geometry">
            <mxPoint x="1010" y="385" as="sourcePoint" />
            <mxPoint x="1240" y="430" as="targetPoint" />
          </mxGeometry>
        </mxCell>
        <mxCell id="KYqQ4QEwSn9y70eBzoIo-118" value="Falls_into" style="shape=rhombus;perimeter=rhombusPerimeter;whiteSpace=wrap;html=1;align=center;" parent="1" vertex="1">
          <mxGeometry x="950" y="500" width="120" height="60" as="geometry" />
        </mxCell>
        <mxCell id="KYqQ4QEwSn9y70eBzoIo-119" value="" style="shape=link;html=1;rounded=0;entryX=0.34;entryY=0.849;entryDx=0;entryDy=0;entryPerimeter=0;exitX=0.75;exitY=0;exitDx=0;exitDy=0;" parent="1" source="KYqQ4QEwSn9y70eBzoIo-129" target="KYqQ4QEwSn9y70eBzoIo-118" edge="1">
          <mxGeometry relative="1" as="geometry">
            <mxPoint x="890" y="650" as="sourcePoint" />
            <mxPoint x="1098.8000000000002" y="415.60000000000014" as="targetPoint" />
          </mxGeometry>
        </mxCell>
        <mxCell id="KYqQ4QEwSn9y70eBzoIo-120" value="M" style="resizable=0;html=1;align=right;verticalAlign=bottom;" parent="KYqQ4QEwSn9y70eBzoIo-119" connectable="0" vertex="1">
          <mxGeometry x="1" relative="1" as="geometry">
            <mxPoint x="-21" y="9" as="offset" />
          </mxGeometry>
        </mxCell>
        <mxCell id="KYqQ4QEwSn9y70eBzoIo-121" value="" style="shape=link;html=1;rounded=0;exitX=0.5;exitY=1;exitDx=0;exitDy=0;" parent="1" source="KYqQ4QEwSn9y70eBzoIo-110" target="KYqQ4QEwSn9y70eBzoIo-118" edge="1">
          <mxGeometry relative="1" as="geometry">
            <mxPoint x="1145" y="340" as="sourcePoint" />
            <mxPoint x="1118.7199999999998" y="405.81999999999994" as="targetPoint" />
          </mxGeometry>
        </mxCell>
        <mxCell id="KYqQ4QEwSn9y70eBzoIo-122" value="N" style="resizable=0;html=1;align=right;verticalAlign=bottom;" parent="KYqQ4QEwSn9y70eBzoIo-121" connectable="0" vertex="1">
          <mxGeometry x="1" relative="1" as="geometry">
            <mxPoint x="8" y="-11" as="offset" />
          </mxGeometry>
        </mxCell>
        <mxCell id="KYqQ4QEwSn9y70eBzoIo-127" value="Instructor" style="whiteSpace=wrap;html=1;align=center;" parent="1" vertex="1">
          <mxGeometry x="1215" y="600" width="100" height="40" as="geometry" />
        </mxCell>
        <mxCell id="KYqQ4QEwSn9y70eBzoIo-128" value="Offers" style="shape=rhombus;perimeter=rhombusPerimeter;whiteSpace=wrap;html=1;align=center;" parent="1" vertex="1">
          <mxGeometry x="1030" y="600" width="120" height="60" as="geometry" />
        </mxCell>
        <mxCell id="KYqQ4QEwSn9y70eBzoIo-129" value="Curriculum" style="shape=ext;margin=3;double=1;whiteSpace=wrap;html=1;align=center;" parent="1" vertex="1">
          <mxGeometry x="850" y="610" width="100" height="40" as="geometry" />
        </mxCell>
        <mxCell id="KYqQ4QEwSn9y70eBzoIo-130" value="" style="endArrow=none;html=1;rounded=0;exitX=0;exitY=0.75;exitDx=0;exitDy=0;" parent="1" source="KYqQ4QEwSn9y70eBzoIo-127" target="KYqQ4QEwSn9y70eBzoIo-128" edge="1">
          <mxGeometry relative="1" as="geometry">
            <mxPoint x="820" y="620" as="sourcePoint" />
            <mxPoint x="980" y="620" as="targetPoint" />
          </mxGeometry>
        </mxCell>
        <mxCell id="KYqQ4QEwSn9y70eBzoIo-131" value="1" style="resizable=0;html=1;align=right;verticalAlign=bottom;" parent="KYqQ4QEwSn9y70eBzoIo-130" connectable="0" vertex="1">
          <mxGeometry x="1" relative="1" as="geometry" />
        </mxCell>
        <mxCell id="KYqQ4QEwSn9y70eBzoIo-132" value="" style="shape=link;html=1;rounded=0;exitX=1;exitY=0.5;exitDx=0;exitDy=0;" parent="1" source="KYqQ4QEwSn9y70eBzoIo-129" target="KYqQ4QEwSn9y70eBzoIo-128" edge="1">
          <mxGeometry relative="1" as="geometry">
            <mxPoint x="820" y="620" as="sourcePoint" />
            <mxPoint x="980" y="620" as="targetPoint" />
          </mxGeometry>
        </mxCell>
        <mxCell id="KYqQ4QEwSn9y70eBzoIo-133" value="N" style="resizable=0;html=1;align=right;verticalAlign=bottom;" parent="KYqQ4QEwSn9y70eBzoIo-132" connectable="0" vertex="1">
          <mxGeometry x="1" relative="1" as="geometry" />
        </mxCell>
        <mxCell id="KYqQ4QEwSn9y70eBzoIo-134" value="introduction" style="ellipse;whiteSpace=wrap;html=1;align=center;" parent="1" vertex="1">
          <mxGeometry x="1380" y="700" width="100" height="40" as="geometry" />
        </mxCell>
        <mxCell id="KYqQ4QEwSn9y70eBzoIo-135" value="" style="endArrow=none;html=1;rounded=0;exitX=0.88;exitY=0.975;exitDx=0;exitDy=0;exitPerimeter=0;" parent="1" source="KYqQ4QEwSn9y70eBzoIo-127" target="KYqQ4QEwSn9y70eBzoIo-134" edge="1">
          <mxGeometry relative="1" as="geometry">
            <mxPoint x="1310" y="640" as="sourcePoint" />
            <mxPoint x="1210" y="620" as="targetPoint" />
          </mxGeometry>
        </mxCell>
        <mxCell id="KYqQ4QEwSn9y70eBzoIo-136" value="instructor_id" style="ellipse;whiteSpace=wrap;html=1;align=center;fontStyle=4;" parent="1" vertex="1">
          <mxGeometry x="1380" y="520" width="100" height="40" as="geometry" />
        </mxCell>
        <mxCell id="KYqQ4QEwSn9y70eBzoIo-137" value="" style="endArrow=none;html=1;rounded=0;" parent="1" source="KYqQ4QEwSn9y70eBzoIo-127" target="KYqQ4QEwSn9y70eBzoIo-136" edge="1">
          <mxGeometry relative="1" as="geometry">
            <mxPoint x="1050" y="620" as="sourcePoint" />
            <mxPoint x="1210" y="620" as="targetPoint" />
          </mxGeometry>
        </mxCell>
        <mxCell id="KYqQ4QEwSn9y70eBzoIo-138" value="&lt;span style=&quot;border-bottom: 1px dotted&quot;&gt;curriculum_name&lt;/span&gt;" style="ellipse;whiteSpace=wrap;html=1;align=center;" parent="1" vertex="1">
          <mxGeometry x="760" y="780" width="100" height="40" as="geometry" />
        </mxCell>
        <mxCell id="KYqQ4QEwSn9y70eBzoIo-139" value="" style="endArrow=none;html=1;rounded=0;exitX=0.5;exitY=0;exitDx=0;exitDy=0;entryX=0.17;entryY=1.014;entryDx=0;entryDy=0;entryPerimeter=0;" parent="1" source="KYqQ4QEwSn9y70eBzoIo-138" target="KYqQ4QEwSn9y70eBzoIo-129" edge="1">
          <mxGeometry relative="1" as="geometry">
            <mxPoint x="840" y="620" as="sourcePoint" />
            <mxPoint x="1000" y="620" as="targetPoint" />
          </mxGeometry>
        </mxCell>
        <mxCell id="KYqQ4QEwSn9y70eBzoIo-140" value="price" style="ellipse;whiteSpace=wrap;html=1;align=center;" parent="1" vertex="1">
          <mxGeometry x="930" y="780" width="100" height="40" as="geometry" />
        </mxCell>
        <mxCell id="KYqQ4QEwSn9y70eBzoIo-141" value="" style="endArrow=none;html=1;rounded=0;exitX=0.75;exitY=1;exitDx=0;exitDy=0;" parent="1" source="KYqQ4QEwSn9y70eBzoIo-129" target="KYqQ4QEwSn9y70eBzoIo-140" edge="1">
          <mxGeometry relative="1" as="geometry">
            <mxPoint x="840" y="620" as="sourcePoint" />
            <mxPoint x="1000" y="620" as="targetPoint" />
          </mxGeometry>
        </mxCell>
        <mxCell id="KYqQ4QEwSn9y70eBzoIo-145" value="num_of_lectures_complete" style="ellipse;whiteSpace=wrap;html=1;align=center;" parent="1" vertex="1">
          <mxGeometry x="900" y="70" width="160" height="40" as="geometry" />
        </mxCell>
        <mxCell id="KYqQ4QEwSn9y70eBzoIo-146" value="" style="endArrow=none;html=1;rounded=0;entryX=0.718;entryY=0.167;entryDx=0;entryDy=0;entryPerimeter=0;exitX=0.378;exitY=1.021;exitDx=0;exitDy=0;exitPerimeter=0;" parent="1" source="KYqQ4QEwSn9y70eBzoIo-145" target="KYqQ4QEwSn9y70eBzoIo-33" edge="1">
          <mxGeometry relative="1" as="geometry">
            <mxPoint x="760" y="390" as="sourcePoint" />
            <mxPoint x="920" y="390" as="targetPoint" />
          </mxGeometry>
        </mxCell>
        <mxCell id="KYqQ4QEwSn9y70eBzoIo-152" value="" style="endArrow=none;html=1;rounded=0;exitX=1;exitY=0.5;exitDx=0;exitDy=0;entryX=0;entryY=0.5;entryDx=0;entryDy=0;" parent="1" source="KYqQ4QEwSn9y70eBzoIo-153" target="KYqQ4QEwSn9y70eBzoIo-90" edge="1">
          <mxGeometry relative="1" as="geometry">
            <mxPoint x="610" y="330" as="sourcePoint" />
            <mxPoint x="740" y="380" as="targetPoint" />
          </mxGeometry>
        </mxCell>
        <mxCell id="KYqQ4QEwSn9y70eBzoIo-153" value="&lt;span style=&quot;border-bottom: 1px dotted&quot;&gt;comment_id&lt;/span&gt;" style="ellipse;whiteSpace=wrap;html=1;align=center;" parent="1" vertex="1">
          <mxGeometry x="530" y="370" width="100" height="40" as="geometry" />
        </mxCell>
        <mxCell id="KYqQ4QEwSn9y70eBzoIo-154" value="rate" style="ellipse;whiteSpace=wrap;html=1;align=center;" parent="1" vertex="1">
          <mxGeometry x="530" y="510" width="100" height="40" as="geometry" />
        </mxCell>
        <mxCell id="KYqQ4QEwSn9y70eBzoIo-155" value="" style="endArrow=none;html=1;rounded=0;" parent="1" source="KYqQ4QEwSn9y70eBzoIo-90" target="KYqQ4QEwSn9y70eBzoIo-154" edge="1">
          <mxGeometry relative="1" as="geometry">
            <mxPoint x="450" y="550" as="sourcePoint" />
            <mxPoint x="610" y="550" as="targetPoint" />
          </mxGeometry>
        </mxCell>
        <mxCell id="KYqQ4QEwSn9y70eBzoIo-156" value="&lt;span style=&quot;border-bottom: 1px dotted&quot;&gt;lecture_name&lt;/span&gt;" style="ellipse;whiteSpace=wrap;html=1;align=center;" parent="1" vertex="1">
          <mxGeometry x="1440" y="330" width="100" height="40" as="geometry" />
        </mxCell>
        <mxCell id="KYqQ4QEwSn9y70eBzoIo-157" value="" style="endArrow=none;html=1;rounded=0;exitX=0.04;exitY=0.35;exitDx=0;exitDy=0;exitPerimeter=0;" parent="1" source="KYqQ4QEwSn9y70eBzoIo-156" target="KYqQ4QEwSn9y70eBzoIo-44" edge="1">
          <mxGeometry relative="1" as="geometry">
            <mxPoint x="830" y="57" as="sourcePoint" />
            <mxPoint x="990" y="57" as="targetPoint" />
          </mxGeometry>
        </mxCell>
        <mxCell id="KYqQ4QEwSn9y70eBzoIo-158" value="length" style="ellipse;whiteSpace=wrap;html=1;align=center;" parent="1" vertex="1">
          <mxGeometry x="1440" y="270" width="100" height="40" as="geometry" />
        </mxCell>
        <mxCell id="KYqQ4QEwSn9y70eBzoIo-159" value="" style="endArrow=none;html=1;rounded=0;exitX=1;exitY=0.25;exitDx=0;exitDy=0;" parent="1" source="KYqQ4QEwSn9y70eBzoIo-44" target="KYqQ4QEwSn9y70eBzoIo-158" edge="1">
          <mxGeometry relative="1" as="geometry">
            <mxPoint x="830" y="57" as="sourcePoint" />
            <mxPoint x="990" y="57" as="targetPoint" />
          </mxGeometry>
        </mxCell>
        <mxCell id="KYqQ4QEwSn9y70eBzoIo-160" value="curriculum_complete" style="ellipse;whiteSpace=wrap;html=1;align=center;dashed=1;" parent="1" vertex="1">
          <mxGeometry x="1060" y="180" width="140" height="40" as="geometry" />
        </mxCell>
        <mxCell id="KYqQ4QEwSn9y70eBzoIo-163" value="" style="endArrow=none;html=1;rounded=0;exitX=1;exitY=0.5;exitDx=0;exitDy=0;" parent="1" source="KYqQ4QEwSn9y70eBzoIo-33" target="KYqQ4QEwSn9y70eBzoIo-160" edge="1">
          <mxGeometry relative="1" as="geometry">
            <mxPoint x="820" y="400" as="sourcePoint" />
            <mxPoint x="980" y="400" as="targetPoint" />
          </mxGeometry>
        </mxCell>
        <mxCell id="KYqQ4QEwSn9y70eBzoIo-164" value="content" style="ellipse;whiteSpace=wrap;html=1;align=center;" parent="1" vertex="1">
          <mxGeometry x="740" y="270" width="100" height="40" as="geometry" />
        </mxCell>
        <mxCell id="KYqQ4QEwSn9y70eBzoIo-165" value="" style="endArrow=none;html=1;rounded=0;exitX=0.5;exitY=1;exitDx=0;exitDy=0;" parent="1" source="KYqQ4QEwSn9y70eBzoIo-164" target="KYqQ4QEwSn9y70eBzoIo-90" edge="1">
          <mxGeometry relative="1" as="geometry">
            <mxPoint x="410" y="380" as="sourcePoint" />
            <mxPoint x="670" y="330" as="targetPoint" />
          </mxGeometry>
        </mxCell>
        <mxCell id="KYqQ4QEwSn9y70eBzoIo-166" value="date" style="ellipse;whiteSpace=wrap;html=1;align=center;" parent="1" vertex="1">
          <mxGeometry x="530" y="440" width="100" height="40" as="geometry" />
        </mxCell>
        <mxCell id="KYqQ4QEwSn9y70eBzoIo-167" value="" style="endArrow=none;html=1;rounded=0;entryX=0;entryY=0.75;entryDx=0;entryDy=0;" parent="1" source="KYqQ4QEwSn9y70eBzoIo-166" target="KYqQ4QEwSn9y70eBzoIo-90" edge="1">
          <mxGeometry relative="1" as="geometry">
            <mxPoint x="410" y="380" as="sourcePoint" />
            <mxPoint x="630" y="350" as="targetPoint" />
          </mxGeometry>
        </mxCell>
        <mxCell id="KYqQ4QEwSn9y70eBzoIo-172" value="&lt;span style=&quot;border-bottom: 1px dotted&quot;&gt;order_id&lt;/span&gt;" style="ellipse;whiteSpace=wrap;html=1;align=center;" parent="1" vertex="1">
          <mxGeometry x="-205" y="382" width="100" height="40" as="geometry" />
        </mxCell>
        <mxCell id="KYqQ4QEwSn9y70eBzoIo-173" value="" style="endArrow=none;html=1;rounded=0;exitX=0;exitY=0.25;exitDx=0;exitDy=0;" parent="1" source="KYqQ4QEwSn9y70eBzoIo-63" target="KYqQ4QEwSn9y70eBzoIo-172" edge="1">
          <mxGeometry relative="1" as="geometry">
            <mxPoint x="90" y="480" as="sourcePoint" />
            <mxPoint x="250" y="480" as="targetPoint" />
          </mxGeometry>
        </mxCell>
        <mxCell id="KYqQ4QEwSn9y70eBzoIo-177" value="Puts_Into_Cart" style="shape=rhombus;perimeter=rhombusPerimeter;whiteSpace=wrap;html=1;align=center;" parent="1" vertex="1">
          <mxGeometry x="-30" y="590" width="120" height="60" as="geometry" />
        </mxCell>
        <mxCell id="KYqQ4QEwSn9y70eBzoIo-179" value="" style="endArrow=none;html=1;rounded=0;entryX=1;entryY=0.5;entryDx=0;entryDy=0;exitX=0;exitY=0.25;exitDx=0;exitDy=0;" parent="1" source="KYqQ4QEwSn9y70eBzoIo-129" target="KYqQ4QEwSn9y70eBzoIo-177" edge="1">
          <mxGeometry relative="1" as="geometry">
            <mxPoint x="570" y="690" as="sourcePoint" />
            <mxPoint x="730" y="690" as="targetPoint" />
          </mxGeometry>
        </mxCell>
        <mxCell id="KYqQ4QEwSn9y70eBzoIo-180" value="N" style="resizable=0;html=1;align=right;verticalAlign=bottom;" parent="KYqQ4QEwSn9y70eBzoIo-179" connectable="0" vertex="1">
          <mxGeometry x="1" relative="1" as="geometry" />
        </mxCell>
        <mxCell id="KYqQ4QEwSn9y70eBzoIo-184" value="" style="endArrow=none;html=1;rounded=0;exitX=0.5;exitY=1;exitDx=0;exitDy=0;entryX=0.69;entryY=0.192;entryDx=0;entryDy=0;entryPerimeter=0;" parent="1" source="KYqQ4QEwSn9y70eBzoIo-8" target="KYqQ4QEwSn9y70eBzoIo-177" edge="1">
          <mxGeometry relative="1" as="geometry">
            <mxPoint x="180" y="515" as="sourcePoint" />
            <mxPoint x="340" y="460" as="targetPoint" />
          </mxGeometry>
        </mxCell>
        <mxCell id="KYqQ4QEwSn9y70eBzoIo-185" value="M" style="resizable=0;html=1;align=right;verticalAlign=bottom;" parent="KYqQ4QEwSn9y70eBzoIo-184" connectable="0" vertex="1">
          <mxGeometry x="1" relative="1" as="geometry">
            <mxPoint y="-8" as="offset" />
          </mxGeometry>
        </mxCell>
        <mxCell id="g0ViUHiKmBo88WcQWjzb-1" value="Writes" style="shape=rhombus;perimeter=rhombusPerimeter;whiteSpace=wrap;html=1;align=center;" parent="1" vertex="1">
          <mxGeometry x="430" y="270" width="120" height="60" as="geometry" />
        </mxCell>
        <mxCell id="g0ViUHiKmBo88WcQWjzb-2" value="" style="endArrow=none;html=1;rounded=0;exitX=1;exitY=0.75;exitDx=0;exitDy=0;entryX=0;entryY=0;entryDx=0;entryDy=0;" parent="1" source="KYqQ4QEwSn9y70eBzoIo-5" target="g0ViUHiKmBo88WcQWjzb-1" edge="1">
          <mxGeometry relative="1" as="geometry">
            <mxPoint x="220" y="220" as="sourcePoint" />
            <mxPoint x="810" y="350" as="targetPoint" />
          </mxGeometry>
        </mxCell>
        <mxCell id="g0ViUHiKmBo88WcQWjzb-3" value="1" style="resizable=0;html=1;align=right;verticalAlign=bottom;" parent="g0ViUHiKmBo88WcQWjzb-2" connectable="0" vertex="1">
          <mxGeometry x="1" relative="1" as="geometry" />
        </mxCell>
        <mxCell id="g0ViUHiKmBo88WcQWjzb-4" value="" style="shape=link;html=1;rounded=0;entryX=1;entryY=1;entryDx=0;entryDy=0;" parent="1" source="KYqQ4QEwSn9y70eBzoIo-90" target="g0ViUHiKmBo88WcQWjzb-1" edge="1">
          <mxGeometry relative="1" as="geometry">
            <mxPoint x="650" y="350" as="sourcePoint" />
            <mxPoint x="810" y="350" as="targetPoint" />
          </mxGeometry>
        </mxCell>
        <mxCell id="g0ViUHiKmBo88WcQWjzb-5" value="N" style="resizable=0;html=1;align=right;verticalAlign=bottom;" parent="g0ViUHiKmBo88WcQWjzb-4" connectable="0" vertex="1">
          <mxGeometry x="1" relative="1" as="geometry">
            <mxPoint x="30" y="5" as="offset" />
          </mxGeometry>
        </mxCell>
        <mxCell id="g0ViUHiKmBo88WcQWjzb-6" value="Contains" style="shape=rhombus;double=1;perimeter=rhombusPerimeter;whiteSpace=wrap;html=1;align=center;" parent="1" vertex="1">
          <mxGeometry x="730" y="500" width="120" height="60" as="geometry" />
        </mxCell>
        <mxCell id="Y8peJH4hKLtHoO32dnuL-2" value="total_discount_percentage" style="ellipse;whiteSpace=wrap;html=1;align=center;dashed=1;" parent="1" vertex="1">
          <mxGeometry x="-235" y="300" width="160" height="40" as="geometry" />
        </mxCell>
        <mxCell id="Y8peJH4hKLtHoO32dnuL-3" value="" style="endArrow=none;html=1;rounded=0;entryX=0.36;entryY=0;entryDx=0;entryDy=0;entryPerimeter=0;exitX=0.563;exitY=1;exitDx=0;exitDy=0;exitPerimeter=0;" parent="1" source="Y8peJH4hKLtHoO32dnuL-2" target="KYqQ4QEwSn9y70eBzoIo-63" edge="1">
          <mxGeometry relative="1" as="geometry">
            <mxPoint x="-150" y="340" as="sourcePoint" />
            <mxPoint x="10" y="340" as="targetPoint" />
          </mxGeometry>
        </mxCell>
        <mxCell id="Y8peJH4hKLtHoO32dnuL-4" value="total_cost" style="ellipse;whiteSpace=wrap;html=1;align=center;dashed=1;" parent="1" vertex="1">
          <mxGeometry x="-205" y="470" width="100" height="40" as="geometry" />
        </mxCell>
        <mxCell id="Y8peJH4hKLtHoO32dnuL-7" value="" style="endArrow=none;html=1;rounded=0;entryX=0.799;entryY=0.742;entryDx=0;entryDy=0;entryPerimeter=0;" parent="1" source="KYqQ4QEwSn9y70eBzoIo-129" target="g0ViUHiKmBo88WcQWjzb-6" edge="1">
          <mxGeometry relative="1" as="geometry">
            <mxPoint x="710" y="400" as="sourcePoint" />
            <mxPoint x="870" y="400" as="targetPoint" />
          </mxGeometry>
        </mxCell>
        <mxCell id="Y8peJH4hKLtHoO32dnuL-8" value="1" style="resizable=0;html=1;align=right;verticalAlign=bottom;" parent="Y8peJH4hKLtHoO32dnuL-7" connectable="0" vertex="1">
          <mxGeometry x="1" relative="1" as="geometry">
            <mxPoint x="2" y="18" as="offset" />
          </mxGeometry>
        </mxCell>
        <mxCell id="Y8peJH4hKLtHoO32dnuL-9" value="" style="shape=link;html=1;rounded=0;entryX=0.5;entryY=0;entryDx=0;entryDy=0;exitX=0.5;exitY=1;exitDx=0;exitDy=0;" parent="1" source="KYqQ4QEwSn9y70eBzoIo-90" target="g0ViUHiKmBo88WcQWjzb-6" edge="1">
          <mxGeometry relative="1" as="geometry">
            <mxPoint x="710" y="400" as="sourcePoint" />
            <mxPoint x="870" y="400" as="targetPoint" />
          </mxGeometry>
        </mxCell>
        <mxCell id="Y8peJH4hKLtHoO32dnuL-10" value="N" style="resizable=0;html=1;align=right;verticalAlign=bottom;" parent="Y8peJH4hKLtHoO32dnuL-9" connectable="0" vertex="1">
          <mxGeometry x="1" relative="1" as="geometry">
            <mxPoint x="-3" as="offset" />
          </mxGeometry>
        </mxCell>
        <mxCell id="P0Yp7DmaGN9MlyKYMzw1-11" value="" style="endArrow=none;html=1;rounded=0;" parent="1" source="KYqQ4QEwSn9y70eBzoIo-129" edge="1">
          <mxGeometry relative="1" as="geometry">
            <mxPoint x="1040" y="420" as="sourcePoint" />
            <mxPoint x="900" y="230" as="targetPoint" />
          </mxGeometry>
        </mxCell>
        <mxCell id="P0Yp7DmaGN9MlyKYMzw1-12" value="N" style="resizable=0;html=1;align=right;verticalAlign=bottom;" parent="P0Yp7DmaGN9MlyKYMzw1-11" connectable="0" vertex="1">
          <mxGeometry x="1" relative="1" as="geometry">
            <mxPoint x="-10" y="20" as="offset" />
          </mxGeometry>
        </mxCell>
        <mxCell id="P0Yp7DmaGN9MlyKYMzw1-13" value="" style="endArrow=none;html=1;rounded=0;exitX=0.25;exitY=0;exitDx=0;exitDy=0;entryX=0.7;entryY=0.833;entryDx=0;entryDy=0;entryPerimeter=0;" parent="1" target="KYqQ4QEwSn9y70eBzoIo-33" edge="1">
          <mxGeometry relative="1" as="geometry">
            <mxPoint x="1274.96" y="297" as="sourcePoint" />
            <mxPoint x="936" y="222.01999999999998" as="targetPoint" />
          </mxGeometry>
        </mxCell>
        <mxCell id="P0Yp7DmaGN9MlyKYMzw1-14" value="N" style="resizable=0;html=1;align=right;verticalAlign=bottom;" parent="P0Yp7DmaGN9MlyKYMzw1-13" connectable="0" vertex="1">
          <mxGeometry x="1" relative="1" as="geometry">
            <mxPoint x="26" y="3" as="offset" />
          </mxGeometry>
        </mxCell>
        <mxCell id="P0Yp7DmaGN9MlyKYMzw1-17" value="coupon_name" style="ellipse;whiteSpace=wrap;html=1;align=center;" parent="1" vertex="1">
          <mxGeometry x="330" y="550" width="100" height="40" as="geometry" />
        </mxCell>
        <mxCell id="P0Yp7DmaGN9MlyKYMzw1-18" value="" style="endArrow=none;html=1;rounded=0;entryX=0;entryY=0.5;entryDx=0;entryDy=0;exitX=0.87;exitY=1.025;exitDx=0;exitDy=0;exitPerimeter=0;" parent="1" source="KYqQ4QEwSn9y70eBzoIo-8" target="P0Yp7DmaGN9MlyKYMzw1-17" edge="1">
          <mxGeometry relative="1" as="geometry">
            <mxPoint x="270" y="444.88243430152147" as="sourcePoint" />
            <mxPoint x="364.5999999999999" y="416.28" as="targetPoint" />
          </mxGeometry>
        </mxCell>
        <mxCell id="04jxB3RO1NO3JYpPR_Yl-1" value="instructor_name" style="ellipse;whiteSpace=wrap;html=1;align=center;" parent="1" vertex="1">
          <mxGeometry x="1380" y="592" width="100" height="40" as="geometry" />
        </mxCell>
        <mxCell id="04jxB3RO1NO3JYpPR_Yl-2" value="password" style="ellipse;whiteSpace=wrap;html=1;align=center;" parent="1" vertex="1">
          <mxGeometry x="1380" y="640" width="100" height="40" as="geometry" />
        </mxCell>
        <mxCell id="04jxB3RO1NO3JYpPR_Yl-3" value="" style="endArrow=none;html=1;rounded=0;exitX=1;exitY=0.25;exitDx=0;exitDy=0;entryX=0;entryY=0.5;entryDx=0;entryDy=0;" parent="1" source="KYqQ4QEwSn9y70eBzoIo-127" target="04jxB3RO1NO3JYpPR_Yl-1" edge="1">
          <mxGeometry relative="1" as="geometry">
            <mxPoint x="1313" y="649" as="sourcePoint" />
            <mxPoint x="1413.4342758176367" y="713.0565066238469" as="targetPoint" />
          </mxGeometry>
        </mxCell>
        <mxCell id="04jxB3RO1NO3JYpPR_Yl-4" value="" style="endArrow=none;html=1;rounded=0;exitX=1;exitY=0.5;exitDx=0;exitDy=0;entryX=0;entryY=0.5;entryDx=0;entryDy=0;" parent="1" source="KYqQ4QEwSn9y70eBzoIo-127" target="04jxB3RO1NO3JYpPR_Yl-2" edge="1">
          <mxGeometry relative="1" as="geometry">
            <mxPoint x="1325" y="620" as="sourcePoint" />
            <mxPoint x="1390" y="622" as="targetPoint" />
          </mxGeometry>
        </mxCell>
        <mxCell id="9Y2jto0XKyFXtKzAWHYT-2" value="last_studied_date" style="ellipse;whiteSpace=wrap;html=1;align=center;" vertex="1" parent="1">
          <mxGeometry x="760" y="60" width="100" height="40" as="geometry" />
        </mxCell>
        <mxCell id="9Y2jto0XKyFXtKzAWHYT-3" value="" style="endArrow=none;html=1;rounded=0;exitX=0.62;exitY=0.975;exitDx=0;exitDy=0;exitPerimeter=0;" edge="1" parent="1" source="9Y2jto0XKyFXtKzAWHYT-2" target="KYqQ4QEwSn9y70eBzoIo-33">
          <mxGeometry relative="1" as="geometry">
            <mxPoint x="970.48" y="120.84000000000003" as="sourcePoint" />
            <mxPoint x="936.1599999999999" y="190.01999999999998" as="targetPoint" />
          </mxGeometry>
        </mxCell>
      </root>
    </mxGraphModel>
  </diagram>
</mxfile>
